HIERARCHY
ROOT Hips
{
	OFFSET 0.000000 0.000000 0.000000
	CHANNELS 6 Xposition Yposition Zposition Zrotation Yrotation Xrotation 
	JOINT LHipJoint
	{
		OFFSET 0.000000 0.000000 0.000000
		CHANNELS 3 Zrotation Yrotation Xrotation
		JOINT LeftUpLeg
		{
			OFFSET 1.363060 -1.794630 0.839290
			CHANNELS 3 Zrotation Yrotation Xrotation
			JOINT LeftLeg
			{
				OFFSET 2.448110 -6.726130 0.000000
				CHANNELS 3 Zrotation Yrotation Xrotation
				JOINT LeftFoot
				{
					OFFSET 2.562200 -7.039590 0.000000
					CHANNELS 3 Zrotation Yrotation Xrotation
					JOINT LeftToeBase
					{
						OFFSET 0.157640 -0.433110 2.322550
						CHANNELS 3 Zrotation Yrotation Xrotation
						End Site
						{
							OFFSET 0.000000 0.000000 0.000000
						}
					}
				}
			}
		}
	}
	JOINT RHipJoint
	{
		OFFSET 0.000000 0.000000 0.000000
		CHANNELS 3 Zrotation Yrotation Xrotation
		JOINT RightUpLeg
		{
			OFFSET -1.305520 -1.794630 0.839290
			CHANNELS 3 Zrotation Yrotation Xrotation
			JOINT RightLeg
			{
				OFFSET -2.542530 -6.985550 0.000000
				CHANNELS 3 Zrotation Yrotation Xrotation
				JOINT RightFoot
				{
					OFFSET -2.568260 -7.056230 0.000000
					CHANNELS 3 Zrotation Yrotation Xrotation
					JOINT RightToeBase
					{
						OFFSET -0.164730 -0.452590 2.363150
						CHANNELS 3 Zrotation Yrotation Xrotation
						End Site
						{
							OFFSET 0.000000 0.000000 0.000000
						}
					}
				}
			}
		}
	}
}
MOTION
Frames: 22
Frame Time: 0.008333
1.556271 16.832722 0.062486 170.025533 -72.671340 -154.770933 -9.903348 2.050667 1.238638 -11.069854 16.294338 -24.160281 -1.947074 -0.641969 21.361239 3.612439 20.658758 -11.117710 -1.033100 0.000000 -44.257600 10.450295 -2.162121 6.721133 -2.245003 7.384144 -32.489497 1.207159 -1.433781 31.412393 -0.946204 -1.133167 -12.843709 0.151800 -0.000001 -67.173600
1.522316 16.864604 0.056053 171.497888 -70.532646 -156.147655 -9.999508 2.209666 1.132765 -11.406066 17.993140 -23.667548 -2.043251 -0.727715 19.945142 3.603479 21.004841 -10.448003 -0.790701 0.000000 -44.445100 10.320062 -2.304691 7.177672 -2.566625 8.460561 -32.543725 1.250182 -1.307641 30.092228 -0.711638 -0.094584 -11.948113 0.072700 -0.000001 -67.792800
1.486202 16.900549 0.050597 172.815766 -68.377934 -157.345165 -10.109028 2.374610 1.040165 -11.715236 19.735412 -23.189428 -2.145168 -0.818261 18.421234 3.574030 21.292189 -9.652395 -0.489100 -0.000000 -44.715300 10.172376 -2.464690 7.650794 -2.855172 9.555429 -32.533976 1.304479 -1.164034 28.543394 -0.474592 0.932535 -10.913730 0.018100 -0.000000 -68.447500
1.448440 16.939843 0.045341 173.997797 -66.232715 -158.376128 -10.233675 2.542568 0.959949 -11.997898 21.508583 -22.751970 -2.253454 -0.910127 16.830442 3.520566 21.498032 -8.730291 -0.129500 0.000000 -45.097700 10.006690 -2.641657 8.138197 -3.111780 10.664893 -32.467527 1.369275 -1.005113 26.785181 -0.239914 1.923553 -9.745491 -0.005801 0.000000 -69.104801
1.409732 16.982042 0.040946 175.074161 -64.114692 -159.294761 -10.381065 2.712645 0.885764 -12.236736 23.319527 -22.334271 -2.368563 -0.999228 15.188275 3.438465 21.596544 -7.682591 0.282000 -0.000000 -45.609701 9.820193 -2.832363 8.620168 -3.315235 11.744163 -32.302537 1.450194 -0.830580 24.809876 -0.005085 2.890109 -8.432452 0.005600 -0.000000 -69.831100
1.370882 17.026131 0.035794 176.036351 -62.059182 -160.071718 -10.544656 2.882083 0.821170 -12.450827 25.132342 -21.992187 -2.491263 -1.081883 13.559331 3.328857 21.575281 -6.521272 0.734600 0.000000 -46.266900 9.618828 -3.034274 9.102730 -3.484209 12.800716 -32.084802 1.542485 -0.645233 22.673255 0.221993 3.795663 -6.996027 0.055501 0.000000 -70.531900
1.332785 17.071453 0.030249 176.897491 -60.091400 -160.738670 -10.725302 3.050072 0.761607 -12.633870 26.938856 -21.716192 -2.621533 -1.154114 11.972359 3.191478 21.419085 -5.260049 1.212000 0.000000 -47.071300 9.405858 -3.241563 9.568696 -3.607646 13.791188 -31.793639 1.649317 -0.451192 20.398936 0.442729 4.651890 -5.440362 0.145800 0.000001 -71.232299
1.296630 17.117075 0.023097 177.632577 -58.242942 -161.265351 -10.911738 3.217056 0.712279 -12.813400 28.686928 -21.526811 -2.758281 -1.214551 10.463682 3.032965 21.142295 -3.918521 1.698100 0.000000 -48.000200 9.193795 -3.447525 10.014364 -3.709338 14.692266 -31.465387 1.766054 -0.254103 18.056839 0.654221 5.455161 -3.798606 0.276400 0.000000 -71.863700
1.262664 17.162600 0.016296 178.279856 -56.532192 -161.727550 -11.111709 3.382782 0.666280 -12.953911 30.392551 -21.385760 -2.900131 -1.258894 9.051302 2.853340 20.725404 -2.522107 2.167701 0.000000 -49.052100 8.981988 -3.645225 10.410268 -3.737973 15.429085 -31.038222 1.902594 -0.053128 15.647420 0.863549 6.253765 -2.059424 0.453200 -0.000000 -72.555000
1.232323 17.207009 0.008108 178.801306 -54.993137 -162.068292 -11.304436 3.547776 0.635027 -13.105821 31.971070 -21.323791 -3.043314 -1.289093 7.765198 2.666106 20.216875 -1.099985 2.608300 0.000000 -50.167400 8.789343 -3.827061 10.762208 -3.744327 16.002269 -30.590979 2.046769 0.142954 13.283401 1.063874 7.033981 -0.292022 0.673300 -0.000000 -73.150800
1.206412 17.249742 -0.001111 179.203905 -53.645872 -162.302572 -11.483526 3.711444 0.620636 -13.272259 33.392346 -21.335369 -3.184412 -1.305052 6.622018 2.478861 19.639059 0.314385 3.004900 0.000000 -51.303900 8.622796 -3.986896 11.062398 -3.728151 16.395702 -30.133424 2.195147 0.330872 11.018958 1.253471 7.803004 1.465078 0.934600 -0.000000 -73.627300
1.184732 17.290470 -0.009591 179.508281 -52.502107 -162.482401 -11.652374 3.874200 0.621886 -13.424206 34.656265 -21.374521 -3.319067 -1.307034 5.615933 2.295948 19.004762 1.692735 3.345001 -0.000000 -52.447400 8.484742 -4.119079 11.285565 -3.642274 16.534037 -29.621402 2.355516 0.511235 8.863621 1.440197 8.628011 3.204805 1.248401 0.000000 -74.130000
1.168272 17.328589 -0.017987 179.716146 -51.578562 -162.584496 -11.796046 4.032785 0.642861 -13.591051 35.712362 -21.470857 -3.443671 -1.297338 4.766045 2.127598 18.359691 2.999402 3.627500 -0.000000 -53.537200 8.382482 -4.220584 11.448897 -3.537642 16.487749 -29.122048 2.512050 0.678661 6.894657 1.611525 9.445111 4.854644 1.596100 0.000000 -74.486200
1.157193 17.363907 -0.025371 179.844538 -50.878972 -162.632921 -11.913306 4.184313 0.679244 -13.757673 36.560076 -21.607057 -3.555289 -1.277002 4.070479 1.977582 17.724488 4.206515 3.851201 0.000000 -54.548100 8.315753 -4.289276 11.548994 -3.409615 16.269149 -28.627279 2.662120 0.832765 5.124569 1.765610 10.243887 6.389107 1.966999 0.000000 -74.726900
1.151027 17.396143 -0.030740 179.909397 -50.404022 -162.648499 -12.003962 4.327562 0.729091 -13.912758 37.197645 -21.759651 -3.650995 -1.248430 3.513925 1.849058 17.125061 5.294736 4.022000 0.000000 -55.466800 8.284687 -4.324081 11.579949 -3.248520 15.868609 -28.126072 2.806273 0.974376 3.551803 1.904337 11.036682 7.793404 2.356000 0.000000 -74.923500
1.149783 17.425156 -0.033698 179.924121 -50.149448 -162.638758 -12.065638 4.459384 0.787077 -14.052250 37.627247 -21.921920 -3.729497 -1.213406 3.087946 1.743971 16.583025 6.246770 4.147600 -0.000001 -56.274300 8.288375 -4.325143 11.546563 -3.068257 15.323778 -27.625435 2.939494 1.103106 2.179213 2.024392 11.790181 9.046409 2.744300 0.000000 -75.076400
1.153349 17.450966 -0.033642 179.912557 -50.104603 -162.616728 -12.099962 4.574491 0.843161 -14.166191 37.868969 -22.096681 -3.791175 -1.172243 2.790066 1.661968 16.105384 7.048602 4.233400 0.000000 -56.961200 8.320337 -4.294372 11.459102 -2.885220 14.705918 -27.130461 3.055958 1.218343 1.003388 2.120361 12.437825 10.135895 3.101200 0.000000 -75.140900
1.161228 17.473604 -0.030093 179.883890 -50.255950 -162.592508 -12.110818 4.671360 0.891830 -14.244947 37.938767 -22.264224 -3.835849 -1.126909 2.597052 1.602240 15.703116 7.698473 4.288699 0.000000 -57.523701 8.376711 -4.233470 11.316044 -2.695713 14.023585 -26.629087 3.156553 1.321112 0.004933 2.194449 12.974392 11.066609 3.415200 0.000000 -75.175000
1.172860 17.493160 -0.022620 179.853810 -50.586982 -162.578826 -12.103850 4.747712 0.927349 -14.280014 37.859987 -22.415410 -3.864408 -1.078573 2.490429 1.562794 15.376230 8.197956 4.319600 -0.000001 -57.960000 8.450463 -4.145426 11.121207 -2.499821 13.304457 -26.115530 3.241388 1.411953 -0.832417 2.247209 13.378741 11.845851 3.671400 -0.000000 -75.188700
1.187653 17.509886 -0.011082 179.831357 -51.078357 -162.582997 -12.086395 4.801933 0.947212 -14.264102 37.653555 -22.542369 -3.877813 -1.028844 2.447169 1.541609 15.123614 8.553333 4.331900 -0.000000 -58.267600 8.532712 -4.034570 10.880827 -2.295637 12.575989 -25.586200 3.311372 1.491802 -1.527671 2.279605 13.631977 12.486694 3.858300 -0.000000 -75.186100
1.205118 17.523841 0.004725 179.827771 -51.708337 -162.621093 -12.064342 4.835376 0.947377 -14.194980 37.359437 -22.636917 -3.879124 -0.977841 2.452355 1.533887 14.922467 8.774854 4.323700 0.000000 -58.458200 8.617687 -3.904676 10.596909 -2.076712 11.840773 -25.031860 3.369098 1.561227 -2.094202 2.294798 13.747072 13.001035 3.976601 0.000000 -75.186100
1.224213 17.535439 0.024631 179.854694 -52.454353 -162.698018 -12.046536 4.847873 0.932789 -14.068908 36.988871 -22.696908 -3.868854 -0.928108 2.475948 1.538156 14.771656 8.876487 4.300500 -0.000000 -58.526000 8.694362 -3.762195 10.281658 -1.840163 11.129647 -24.458261 3.416537 1.621770 -2.551051 2.293761 13.708277 13.409538 4.020900 -0.000000 -75.171800
